<?xml version="1.0" encoding="UTF-8"?>
<svg xmlns="http://www.w3.org/2000/svg" width="99" height="32" viewBox="0 0 99 32" fill="none">
  <path d="M31.42 24V10.66H34.66V24H31.42ZM37.3942 14.74C37.6476 14.6067 37.9809 14.4733 38.3942 14.34C38.8076 14.1933 39.2609 14.0667 39.7542 13.96C40.2476 13.8533 40.7409 13.7667 41.2342 13.7C41.7409 13.6333 42.2076 13.6 42.6342 13.6C43.5409 13.6 44.3142 13.72 44.9542 13.96C45.5942 14.1867 46.0809 14.56 46.4142 15.08C46.7609 15.6 46.9342 16.3067 46.9342 17.2V24H43.9542V17.8C43.9542 17.5467 43.9142 17.3133 43.8342 17.1C43.7676 16.8867 43.6609 16.7067 43.5142 16.56C43.3676 16.4 43.1676 16.28 42.9142 16.2C42.6609 16.1067 42.3542 16.06 41.9942 16.06C41.6876 16.06 41.3809 16.1 41.0742 16.18C40.7676 16.2467 40.5342 16.32 40.3742 16.4V24H37.3942V14.74ZM52.532 24L48.312 13.88H51.552L54.612 21.68L53.892 21.7L56.612 13.88H59.752L55.532 24H52.532ZM65.5089 24.3C63.8022 24.3 62.5156 23.8467 61.6489 22.94C60.7956 22.02 60.3689 20.6733 60.3689 18.9C60.3689 16.9933 60.8022 15.6267 61.6689 14.8C62.5489 13.96 63.8289 13.54 65.5089 13.54C66.6422 13.54 67.5889 13.7333 68.3489 14.12C69.1222 14.4933 69.7022 15.0733 70.0889 15.86C70.4889 16.6467 70.6889 17.66 70.6889 18.9C70.6889 20.6733 70.2422 22.02 69.3489 22.94C68.4556 23.8467 67.1756 24.3 65.5089 24.3ZM65.5089 21.92C66.0022 21.92 66.4089 21.8067 66.7289 21.58C67.0622 21.34 67.3089 21 67.4689 20.56C67.6422 20.1067 67.7289 19.5533 67.7289 18.9C67.7289 18.1533 67.6422 17.5667 67.4689 17.14C67.3089 16.7 67.0622 16.3867 66.7289 16.2C66.3956 16 65.9889 15.9 65.5089 15.9C65.0022 15.9 64.5889 16 64.2689 16.2C63.9489 16.4 63.7089 16.72 63.5489 17.16C63.4022 17.5867 63.3289 18.1667 63.3289 18.9C63.3289 19.9133 63.5022 20.6733 63.8489 21.18C64.2089 21.6733 64.7622 21.92 65.5089 21.92ZM72.8058 24V14.02H75.7858L75.8058 24H72.8058ZM72.7458 12.5V10.2H75.8258V12.5H72.7458ZM83.2084 24.26C82.4884 24.26 81.8084 24.1533 81.1684 23.94C80.5284 23.7267 79.9618 23.4067 79.4684 22.98C78.9751 22.5533 78.5884 22.0133 78.3084 21.36C78.0284 20.7067 77.8884 19.9467 77.8884 19.08C77.8884 18.16 78.0218 17.36 78.2884 16.68C78.5551 15.9867 78.9218 15.4133 79.3884 14.96C79.8684 14.5067 80.4284 14.1667 81.0684 13.94C81.7084 13.7133 82.4151 13.6 83.1884 13.6C83.7351 13.6 84.2951 13.66 84.8684 13.78C85.4551 13.8867 85.9684 14.04 86.4084 14.24V16.8C85.9418 16.5867 85.4818 16.4133 85.0284 16.28C84.5884 16.1333 84.1351 16.06 83.6684 16.06C82.8284 16.06 82.1484 16.2733 81.6284 16.7C81.1218 17.1133 80.8684 17.7933 80.8684 18.74C80.8684 19.74 81.0951 20.4933 81.5484 21C82.0018 21.5067 82.7551 21.76 83.8084 21.76C84.3018 21.76 84.7751 21.6733 85.2284 21.5C85.6951 21.3267 86.0951 21.1467 86.4284 20.96V23.5C85.9618 23.74 85.4751 23.9267 84.9684 24.06C84.4618 24.1933 83.8751 24.26 83.2084 24.26ZM93.0875 24.3C92.0742 24.3 91.1742 24.0933 90.3875 23.68C89.6142 23.2533 89.0075 22.6533 88.5675 21.88C88.1408 21.0933 87.9275 20.16 87.9275 19.08C87.9275 17.32 88.3608 15.96 89.2275 15C90.1075 14.0267 91.3608 13.54 92.9875 13.54C94.1075 13.54 95.0075 13.78 95.6875 14.26C96.3808 14.74 96.8875 15.44 97.2075 16.36C97.5275 17.28 97.6808 18.4 97.6675 19.72H89.9675L89.6475 17.82H95.2075L94.7675 18.76C94.7542 17.68 94.6008 16.92 94.3075 16.48C94.0142 16.04 93.5342 15.82 92.8675 15.82C92.4942 15.82 92.1542 15.9133 91.8475 16.1C91.5542 16.2867 91.3208 16.6 91.1475 17.04C90.9875 17.4667 90.9075 18.06 90.9075 18.82C90.9075 19.78 91.1342 20.52 91.5875 21.04C92.0542 21.56 92.7942 21.82 93.8075 21.82C94.1808 21.82 94.5475 21.78 94.9075 21.7C95.2808 21.6067 95.6275 21.5 95.9475 21.38C96.2675 21.26 96.5408 21.1533 96.7675 21.06V23.62C96.2875 23.82 95.7475 23.98 95.1475 24.1C94.5608 24.2333 93.8742 24.3 93.0875 24.3Z" fill="black"></path>
  <path d="M11.8331 5.85323H3.0766L9.9398 15.9192L0 31.8374L11.1231 15.9192L5.20656 7.02369H11.1231L14.673 13.1101L18.4596 5.85323L14.673 11.0033L11.8331 5.85323Z" fill="#00A85E"></path>
  <path d="M17.9865 25.9842L26.7429 25.9842L19.8798 15.9182L29.8196 0L18.6964 15.9182L24.613 24.8137H18.6964L15.1465 18.7273L11.3599 25.9842L15.1465 20.8342L17.9865 25.9842Z" fill="#00A85E"></path>
</svg>
